HIERARCHY
ROOT hip
{
  OFFSET 0 0 0
  CHANNELS 6 Xposition Yposition Zposition Zrotation Yrotation Xrotation
  JOINT abdomen
  {
    OFFSET 0 20.6881 -0.73152
    CHANNELS 3 Zrotation Xrotation Yrotation
    JOINT chest
    {
      OFFSET 0 11.7043 -0.48768
      CHANNELS 3 Zrotation Xrotation Yrotation
      JOINT neck
      {
        OFFSET 0 22.1894 -2.19456
        CHANNELS 3 Zrotation Xrotation Yrotation
        JOINT head
        {
          OFFSET -0.24384 7.07133 1.2192
          CHANNELS 3 Zrotation Xrotation Yrotation
          JOINT leftEye
          {
            OFFSET 4.14528 8.04674 8.04672
            CHANNELS 3 Zrotation Xrotation Yrotation
            End Site
            {
              OFFSET 1 0 0
            }
          }
          JOINT rightEye
          {
            OFFSET -3.6576 8.04674 8.04672
            CHANNELS 3 Zrotation Xrotation Yrotation
            End Site
            {
              OFFSET 1 0 0
            }
          }
        }
      }
      JOINT rCollar
      {
        OFFSET -2.68224 19.2634 -4.8768
        CHANNELS 3 Zrotation Xrotation Yrotation
        JOINT rShldr
        {
          OFFSET -8.77824 -1.95073 1.46304
          CHANNELS 3 Zrotation Xrotation Yrotation
          JOINT rForeArm
          {
            OFFSET -28.1742 -1.7115 0.48768
            CHANNELS 3 Zrotation Xrotation Yrotation
            JOINT rHand
            {
              OFFSET -22.5879 0.773209 7.07136
              CHANNELS 3 Zrotation Xrotation Yrotation
              JOINT rThumb1
              {
                OFFSET -1.2192 -0.487915 3.41376
                CHANNELS 3 Zrotation Xrotation Yrotation
                JOINT rThumb2
                {
                  OFFSET -3.37035 -0.52449 3.41376
                  CHANNELS 3 Zrotation Xrotation Yrotation
                  End Site
                  {
                    OFFSET -1.78271 -1.18214 1.43049
                  }
                }
              }
              JOINT rIndex1
              {
                OFFSET -7.75947 0.938293 5.60832
                CHANNELS 3 Zrotation Xrotation Yrotation
                JOINT rIndex2
                {
                  OFFSET -2.54057 -0.884171 1.56538
                  CHANNELS 3 Zrotation Xrotation Yrotation
                  End Site
                  {
                    OFFSET -1.62519 -0.234802 1.16502
                  }
                }
              }
              JOINT rMid1
              {
                OFFSET -8.24714 1.18213 3.41376
                CHANNELS 3 Zrotation Xrotation Yrotation
                JOINT rMid2
                {
                  OFFSET -3.10165 -0.590103 1.0647
                  CHANNELS 3 Zrotation Xrotation Yrotation
                  End Site
                  {
                    OFFSET -2.48547 -0.328903 0.83742
                  }
                }
              }
              JOINT rRing1
              {
                OFFSET -8.82822 0.546677 1.51678
                CHANNELS 3 Zrotation Xrotation Yrotation
                JOINT rRing2
                {
                  OFFSET -2.60934 -0.819778 -0.0198488
                  CHANNELS 3 Zrotation Xrotation Yrotation
                  End Site
                  {
                    OFFSET -2.33842 -0.294052 0.168128
                  }
                }
              }
              JOINT rPinky1
              {
                OFFSET -8.27202 -0.0477905 -0.4584
                CHANNELS 3 Zrotation Xrotation Yrotation
                JOINT rPinky2
                {
                  OFFSET -1.82734 -0.647385 -0.700984
                  CHANNELS 3 Zrotation Xrotation Yrotation
                  End Site
                  {
                    OFFSET -1.69225 -0.51767 -0.607171
                  }
                }
              }
            }
          }
        }
      }
      JOINT lCollar
      {
        OFFSET 2.68224 19.2634 -4.8768
        CHANNELS 3 Zrotation Xrotation Yrotation
        JOINT lShldr
        {
          OFFSET 8.77824 -1.95073 1.46304
          CHANNELS 3 Zrotation Xrotation Yrotation
          JOINT lForeArm
          {
            OFFSET 28.1742 -1.7115 0.48768
            CHANNELS 3 Zrotation Xrotation Yrotation
            JOINT lHand
            {
              OFFSET 22.5879 0.773209 7.07136
              CHANNELS 3 Zrotation Xrotation Yrotation
              JOINT lThumb1
              {
                OFFSET 1.2192 -0.487915 3.41376
                CHANNELS 3 Zrotation Xrotation Yrotation
                JOINT lThumb2
                {
                  OFFSET 3.37035 -0.52449 3.41376
                  CHANNELS 3 Zrotation Xrotation Yrotation
                  End Site
                  {
                    OFFSET 1.78271 -1.18214 1.43049
                  }
                }
              }
              JOINT lIndex1
              {
                OFFSET 7.75947 0.938293 5.60832
                CHANNELS 3 Zrotation Xrotation Yrotation
                JOINT lIndex2
                {
                  OFFSET 2.54057 -0.884171 1.56538
                  CHANNELS 3 Zrotation Xrotation Yrotation
                  End Site
                  {
                    OFFSET 1.62519 -0.234802 1.16502
                  }
                }
              }
              JOINT lMid1
              {
                OFFSET 8.24714 1.18213 3.41376
                CHANNELS 3 Zrotation Xrotation Yrotation
                JOINT lMid2
                {
                  OFFSET 3.10165 -0.590103 1.0647
                  CHANNELS 3 Zrotation Xrotation Yrotation
                  End Site
                  {
                    OFFSET 2.48547 -0.328903 0.83742
                  }
                }
              }
              JOINT lRing1
              {
                OFFSET 8.82822 0.546677 1.51678
                CHANNELS 3 Zrotation Xrotation Yrotation
                JOINT lRing2
                {
                  OFFSET 2.60934 -0.819778 -0.0198488
                  CHANNELS 3 Zrotation Xrotation Yrotation
                  End Site
                  {
                    OFFSET 2.33842 -0.294052 0.168128
                  }
                }
              }
              JOINT lPinky1
              {
                OFFSET 8.27202 -0.0477905 -0.4584
                CHANNELS 3 Zrotation Xrotation Yrotation
                JOINT lPinky2
                {
                  OFFSET 1.82734 -0.647385 -0.700984
                  CHANNELS 3 Zrotation Xrotation Yrotation
                  End Site
                  {
                    OFFSET 1.69225 -0.51767 -0.607171
                  }
                }
              }
            }
          }
        }
      }
    }
  }
  JOINT rButtock
  {
    OFFSET -8.77824 4.35084 1.2192
    CHANNELS 3 Zrotation Xrotation Yrotation
    JOINT rThigh
    {
      OFFSET 0 -1.70687 -2.19456
      CHANNELS 3 Zrotation Xrotation Yrotation
      JOINT rShin
      {
        OFFSET 0 -36.8199 0.73152
        CHANNELS 3 Zrotation Xrotation Yrotation
        JOINT rFoot
        {
          OFFSET 0.73152 -45.1104 -5.12064
          CHANNELS 3 Zrotation Xrotation Yrotation
          End Site
          {
            OFFSET -1.1221 -3.69964 12.103
          }
        }
      }
    }
  }
  JOINT lButtock
  {
    OFFSET 8.77824 4.35084 1.2192
    CHANNELS 3 Zrotation Xrotation Yrotation
    JOINT lThigh
    {
      OFFSET 0 -1.70687 -2.19456
      CHANNELS 3 Zrotation Xrotation Yrotation
      JOINT lShin
      {
        OFFSET 0 -36.8199 0.73152
        CHANNELS 3 Zrotation Xrotation Yrotation
        JOINT lFoot
        {
          OFFSET -0.73152 -45.1104 -5.12064
          CHANNELS 3 Zrotation Xrotation Yrotation
          End Site
          {
            OFFSET 1.1221 -3.69964 12.103
          }
        }
      }
    }
  }
}
MOTION
Frames:	6
Frame Time:	0.03333
-0.01049999991664663 79.93170022964478 0.11599999852478504 99.34159851074219 -47.31560134887695 -70.78789520263672 -16.5347957611084 6.863504409790039 14.329316139221191 -5.552186965942383 -5.231592655181885 3.418046236038208 2.710937738418579 9.192415237426758 8.503260612487793 -15.887998580932617 -10.904585838317871 14.693092346191406 -0.0 0.0 -0.0 -0.0 0.0 -0.0 -0.0 -0.0 -0.0 8.844537734985352 41.1953010559082 40.847496032714844 -28.12769889831543 -31.43709945678711 69.54879760742188 -0.13284410536289215 10.335587501525879 1.468778371810913 -0.0 -0.0 -0.0 -0.0 -0.0 -0.0 -0.0 -0.0 -0.0 7.730902194976807 5.47491455078125 0.4173222780227661 -0.0 -0.0 -0.0 2.905566453933716 0.9650754332542419 0.10300818830728531 -0.0 -0.0 -0.0 10.278596878051758 0.7318810820579529 0.026273518800735474 -0.0 -0.0 -0.0 2.221662998199463 -0.7334509491920471 -0.20832103490829468 -0.0 -0.0 -0.0 -63.15380096435547 -14.53930377960205 8.734649658203125 26.828908920288086 -25.78399085998535 -60.540000915527344 2.0486350059509277 -37.09468078613281 6.100832939147949 0.0 0.0 -0.0 0.0 0.0 -0.0 0.0 0.0 -0.0 -7.730902194976807 5.47491455078125 -0.4173222780227661 0.0 0.0 -0.0 -2.905566453933716 0.9650754332542419 -0.10300818830728531 0.0 0.0 -0.0 -10.278596878051758 0.7318810820579529 -0.026273518800735474 0.0 0.0 -0.0 -2.221662998199463 -0.7334509491920471 0.20832103490829468 -0.0 0.0 -0.0 -62.61834716796875 -40.62195587158203 -25.028915405273438 0.01175179984420538 27.85439682006836 2.185551166534424 1.1446713209152222 -1.7549104690551758 -27.39400291442871 0.0 0.0 0.0 138.4559783935547 -3.6372220516204834 110.91200256347656 177.6199951171875 55.6013069152832 178.8470001220703 -5.4802751541137695 -2.656752347946167 -6.935492515563965
-0.0550000011571683 78.0921995639801 0.0699999975040555 102.29999542236328 -49.27640151977539 -71.86788940429688 -13.205192565917969 4.102813720703125 13.974113464355469 -5.854950904846191 -4.151664733886719 3.4660565853118896 2.855013132095337 9.392690658569336 8.818239212036133 -15.523099899291992 -10.797402381896973 15.337696075439453 -0.0 0.0 -0.0 -0.0 0.0 -0.0 0.0 0.0 -0.0 7.580601692199707 43.22829818725586 42.205291748046875 -28.184602737426758 -31.85750389099121 70.22410583496094 -0.13083605468273163 10.258706092834473 1.4574774503707886 -0.0 0.0 0.0 -0.0 0.0 0.0 -0.0 0.0 0.0 7.730902194976807 5.47491455078125 0.4173222780227661 -0.0 0.0 0.0 2.905566453933716 0.9650754332542419 0.10300818830728531 -0.0 0.0 0.0 10.278596878051758 0.7318810820579529 0.026273518800735474 -0.0 0.0 0.0 2.221662998199463 -0.7334509491920471 -0.20832103490829468 0.0 0.0 -0.0 -63.1995964050293 -13.292108535766602 9.19093132019043 27.035106658935547 -26.455785751342773 -61.60710525512695 2.0149214267730713 -36.84280014038086 6.044543743133545 -0.0 0.0 0.0 -0.0 0.0 0.0 -0.0 0.0 0.0 -7.730902194976807 5.47491455078125 -0.4173222780227661 -0.0 0.0 0.0 -2.905566453933716 0.9650754332542419 -0.10300818830728531 -0.0 0.0 0.0 -10.278596878051758 0.7318810820579529 -0.026273518800735474 -0.0 0.0 0.0 -2.221662998199463 -0.7334509491920471 0.20832103490829468 -0.0 0.0 -0.0 -64.56806182861328 -45.76435470581055 -31.448190689086914 -0.009703150019049644 33.29908752441406 2.290559768676758 0.9692347645759583 -2.7970781326293945 -23.50589942932129 0.0 0.0 0.0 138.75698852539062 1.541624903678894 117.45399475097656 177.75299072265625 50.15079879760742 178.8360595703125 -4.470640182495117 -0.9403775930404663 -4.393624782562256
-0.08820000075502321 76.33000016212463 -0.021000002743676305 106.22000122070312 -51.450889587402344 -74.1889877319336 -10.060208320617676 0.9464762806892395 13.9468994140625 -6.38785457611084 -2.7342801094055176 3.612638235092163 2.839038372039795 9.621122360229492 9.278458595275879 -15.120596885681152 -11.071283340454102 16.25270652770996 -0.0 0.0 -0.0 -0.0 0.0 -0.0 0.0 0.0 -0.0 6.398780345916748 45.174800872802734 43.564002990722656 -28.249698638916016 -32.39200210571289 71.07760620117188 -0.13246218860149384 10.851981163024902 1.5424023866653442 -0.0 0.0 0.0 -0.0 0.0 0.0 -0.0 0.0 0.0 7.730902194976807 5.47491455078125 0.4173222780227661 -0.0 0.0 0.0 2.905566453933716 0.9650754332542419 0.10300818830728531 -0.0 0.0 0.0 10.278596878051758 0.7318810820579529 0.026273518800735474 -0.0 0.0 0.0 2.221662998199463 -0.7334509491920471 -0.20832103490829468 0.0 0.0 -0.0 -63.18579864501953 -12.349996566772461 9.75967788696289 27.269594192504883 -27.288015365600586 -62.93681335449219 1.7658405303955078 -34.87057113647461 5.6186065673828125 -0.0 0.0 -0.0 -0.0 0.0 -0.0 -0.0 0.0 -0.0 -7.730902194976807 5.47491455078125 -0.4173222780227661 -0.0 0.0 -0.0 -2.905566453933716 0.9650754332542419 -0.10300818830728531 -0.0 0.0 -0.0 -10.278596878051758 0.7318810820579529 -0.026273518800735474 -0.0 0.0 -0.0 -2.221662998199463 -0.7334509491920471 0.20832103490829468 -0.0 0.0 -0.0 -67.30279541015625 -50.972782135009766 -38.77091598510742 -0.06876515597105026 37.87560272216797 2.27298641204834 0.7372186779975891 -3.4644017219543457 -20.026504516601562 0.0 0.0 0.0 138.10699462890625 3.792187452316284 122.73099517822266 177.82106018066406 46.741302490234375 178.8549346923828 -4.343287944793701 0.32263293862342834 -4.543977737426758
-0.23879999498603866 74.67600107192993 0.004999997327104211 111.09400177001953 -53.69459533691406 -77.8460922241211 -7.779325008392334 0.3815366327762604 13.948799133300781 -6.881817817687988 -2.1136276721954346 3.6650311946868896 2.7745280265808105 9.880528450012207 9.766249656677246 -14.57928466796875 -11.517017364501953 17.225500106811523 -0.0 0.0 -0.0 -0.0 0.0 -0.0 -0.0 0.0 -0.0 5.680924415588379 47.02470016479492 44.554595947265625 -28.306503295898438 -32.960906982421875 72.00690460205078 -0.16107243299484253 11.36471176147461 1.6186751127243042 -0.0 0.0 -0.0 -0.0 0.0 -0.0 -0.0 0.0 -0.0 7.730902194976807 5.47491455078125 0.4173222780227661 -0.0 0.0 -0.0 2.905566453933716 0.9650754332542419 0.10300818830728531 -0.0 0.0 -0.0 10.278596878051758 0.7318810820579529 0.026273518800735474 -0.0 0.0 -0.0 2.221662998199463 -0.7334509491920471 -0.20832103490829468 -0.0 0.0 -0.0 -62.99599838256836 -11.435920715332031 10.25049114227295 27.52889633178711 -28.300796508789062 -64.54279327392578 1.5500400066375732 -32.98090362548828 5.232730865478516 -0.0 0.0 -0.0 -0.0 0.0 -0.0 -0.0 0.0 -0.0 -7.730902194976807 5.47491455078125 -0.4173222780227661 -0.0 0.0 -0.0 -2.905566453933716 0.9650754332542419 -0.10300818830728531 -0.0 0.0 -0.0 -10.278596878051758 0.7318810820579529 -0.026273518800735474 -0.0 0.0 -0.0 -2.221662998199463 -0.7334509491920471 0.20832103490829468 -0.0 0.0 -0.0 -68.91390228271484 -54.106990814208984 -44.31781768798828 -0.13234767317771912 41.432796478271484 2.184425115585327 0.4699537754058838 -4.123366355895996 -16.795989990234375 0.0 0.0 0.0 136.1820068359375 0.8993354439735413 126.6080093383789 177.83697509765625 45.67440414428711 178.93798828125 -4.3622283935546875 0.4359677731990814 -5.199471950531006
-2.025699934165459 73.21109771728516 -1.1900000215973705 116.37699890136719 -55.1376953125 -82.78939819335938 -7.778123378753662 6.53010368347168 13.678004264831543 -6.884152412414551 -3.8007984161376953 3.3757286071777344 2.7489984035491943 10.176797866821289 10.156696319580078 -13.646196365356445 -12.081503868103027 18.0358943939209 -0.0 0.0 -0.0 -0.0 0.0 -0.0 -0.0 0.0 -0.0 6.2875752449035645 48.683406829833984 44.47330856323242 -28.34819793701172 -33.46670913696289 72.83421325683594 -0.15426132082939148 11.125617980957031 1.5837643146514893 -0.0 -0.0 -0.0 -0.0 -0.0 -0.0 -0.0 -0.0 -0.0 7.730902194976807 5.47491455078125 0.4173222780227661 -0.0 -0.0 -0.0 2.905566453933716 0.9650754332542419 0.10300818830728531 -0.0 -0.0 -0.0 10.278596878051758 0.7318810820579529 0.026273518800735474 -0.0 -0.0 -0.0 2.221662998199463 -0.7334509491920471 -0.20832103490829468 -0.0 0.0 -0.0 -62.46417999267578 -10.323884963989258 10.443809509277344 27.805198669433594 -29.545013427734375 -66.49260711669922 1.5538709163665771 -32.86740493774414 5.215375900268555 -0.0 0.0 -0.0 -0.0 0.0 -0.0 -0.0 0.0 -0.0 -7.730902194976807 5.47491455078125 -0.4173222780227661 -0.0 0.0 -0.0 -2.905566453933716 0.9650754332542419 -0.10300818830728531 -0.0 0.0 -0.0 -10.278596878051758 0.7318810820579529 -0.026273518800735474 -0.0 0.0 -0.0 -2.221662998199463 -0.7334509491920471 0.20832103490829468 -0.0 0.0 -0.0 -64.60420989990234 -53.1801872253418 -41.8297233581543 -0.19534189999103546 43.386695861816406 2.038473129272461 0.2541334331035614 -5.119161605834961 -14.026310920715332 0.0 0.0 0.0 130.7239990234375 -8.598113059997559 124.77798461914062 177.78897094726562 47.56990051269531 179.114013671875 -4.199174880981445 -1.9441072940826416 -5.151359558105469
-4.142699895601254 73.73470067977905 -2.6100000308360904 116.864013671875 -54.34072494506836 -94.16981506347656 -8.597770690917969 15.281893730163574 13.8724946975708 -6.8559160232543945 -6.3324174880981445 3.0372257232666016 2.8403453826904297 10.462599754333496 10.494093894958496 -12.748804092407227 -12.54698657989502 18.73520278930664 -0.0 0.0 -0.0 -0.0 0.0 -0.0 -0.0 0.0 -0.0 7.521328926086426 50.321807861328125 43.74700164794922 -28.384193420410156 -33.99161148071289 73.68598937988281 -0.13998524844646454 10.606012344360352 1.5080487728118896 -0.0 -0.0 -0.0 -0.0 -0.0 -0.0 -0.0 -0.0 -0.0 7.730902194976807 5.47491455078125 0.4173222780227661 -0.0 -0.0 -0.0 2.905566453933716 0.9650754332542419 0.10300818830728531 -0.0 -0.0 -0.0 10.278596878051758 0.7318810820579529 0.026273518800735474 -0.0 -0.0 -0.0 2.221662998199463 -0.7334509491920471 -0.20832103490829468 -0.0 0.0 -0.0 -61.787208557128906 -9.094988822937012 10.32819652557373 28.0386962890625 -30.8485050201416 -68.60478973388672 1.602900505065918 -33.45930099487305 5.329220771789551 0.0 0.0 0.0 0.0 0.0 0.0 0.0 0.0 0.0 -7.730902194976807 5.47491455078125 -0.4173222780227661 0.0 0.0 0.0 -2.905566453933716 0.9650754332542419 -0.10300818830728531 0.0 0.0 0.0 -10.278596878051758 0.7318810820579529 -0.026273518800735474 0.0 0.0 0.0 -2.221662998199463 -0.7334509491920471 0.20832103490829468 -0.0 0.0 -0.0 -58.00909423828125 -50.544395446777344 -36.14521408081055 -0.2553592920303345 44.64500427246094 1.8730281591415405 0.14448821544647217 -6.2734479904174805 -11.441699028015137 0.0 0.0 0.0 122.4170150756836 -19.248098373413086 117.88800048828125 177.6810760498047 51.275901794433594 179.36691284179688 -4.070006370544434 -5.122107028961182 -5.2244696617126465
